<svg width="167" height="167" viewBox="0 0 167 167" fill="none" xmlns="http://www.w3.org/2000/svg">
<g clip-path="url(#clip0_197_596)">
<path d="M167 0H0V167H167V0Z" fill="url(#paint0_linear_197_596)"/>
<path d="M49.5819 127.121C45.2133 127.121 41.4242 126.185 38.2147 124.312C35.0051 122.395 33.4004 120.122 33.4004 117.492C33.4004 115.441 34.0913 113.993 35.4732 113.146C36.8551 112.299 38.237 111.875 39.6188 111.875C40.3766 111.875 41.1345 112.12 41.8923 112.611C42.65 113.057 43.0289 113.837 43.0289 114.951C43.0289 115.798 42.65 116.556 41.8923 117.224C41.1345 117.893 40.2429 118.227 39.2177 118.227C38.6382 118.227 38.0809 118.205 37.546 118.161C37.0111 118.072 36.5208 117.893 36.0751 117.626V118.027C36.0751 120.122 37.3232 121.883 39.8195 123.309C42.3603 124.691 45.7928 125.382 50.1168 125.382C53.7721 125.382 57.4719 124.468 61.2162 122.641C64.9607 120.813 69.0173 117.759 73.3859 113.48C77.7543 109.201 82.7023 103.383 88.2298 96.0283C90.1467 93.4874 92.5984 90.4784 95.585 87.0015C98.6162 83.48 101.358 80.3818 103.809 77.7071C96.5434 82.8335 90.4364 86.422 85.4884 88.4724C80.5849 90.523 76.3501 91.5482 72.784 91.5482C69.7974 91.5482 67.4124 91.0357 65.6294 90.0103C63.8463 88.9405 62.9549 86.8677 62.9549 83.7919C62.9549 82.7667 63.0663 81.5853 63.2892 80.248C61.6398 80.3818 59.9905 80.4487 58.3412 80.4487C55.4881 80.4487 52.8582 80.1366 50.4511 79.5125C48.044 78.8885 46.0379 78.1306 44.4331 77.2392C43.2295 76.6151 42.6278 76.147 42.6278 75.835C42.6278 75.3891 42.873 75.1664 43.3633 75.1664C43.497 75.1664 43.7868 75.3 44.2325 75.5675C46.506 76.7711 48.7348 77.6627 50.919 78.2422C53.148 78.8217 55.9562 79.1114 59.3442 79.1114C60.6813 79.1114 62.0856 79.0444 63.5566 78.9108C64.5818 74.5869 66.6548 70.1737 69.775 65.6714C72.94 61.1693 76.7736 56.8229 81.276 52.6327C85.8227 48.4425 90.6816 44.698 95.8525 41.3993C101.023 38.1007 106.172 35.493 111.298 33.5762C116.425 31.6148 121.128 30.6341 125.407 30.6341C128.304 30.6341 130.377 31.1245 131.625 32.1051C132.874 33.0413 133.498 34.49 133.498 36.4513C133.498 39.8838 131.737 43.6728 128.215 47.8184C124.694 51.9641 119.79 56.1766 113.505 60.456C107.264 64.7354 100.021 68.7918 91.7737 72.6255C88.386 74.141 84.9089 75.4783 81.3428 76.6373C77.7766 77.7517 74.1881 78.6433 70.5774 79.312C69.1511 82.0757 68.4378 84.3938 68.4378 86.2659C68.4378 87.1129 68.8167 87.9153 69.5744 88.6732C70.3323 89.4308 71.7364 89.8098 73.787 89.8098C77.7988 89.8098 82.8361 88.2497 88.8985 85.1293C94.9609 82.0089 102.985 76.5927 112.97 68.881C115.333 67.0533 117.45 65.56 119.322 64.401C121.239 63.2421 122.532 62.6626 123.2 62.6626C123.557 62.6626 123.914 62.7294 124.27 62.8631C124.627 62.9969 124.805 63.1751 124.805 63.398C124.805 63.7992 124.426 64.1781 123.668 64.5348C122.019 65.2925 120.214 66.6298 118.252 68.5467C116.336 70.4189 114.062 73.1158 111.432 76.6373C108.847 80.1144 105.749 84.6612 102.138 90.2779C86.4468 114.84 68.9281 127.121 49.5819 127.121ZM71.5136 77.5065C74.6785 76.7489 77.9996 75.6789 81.4765 74.2971C84.9535 72.9152 88.6533 71.2435 92.5762 69.2821C98.2819 66.2509 103.52 63.0859 108.29 59.7873C113.104 56.444 117.272 53.2122 120.793 50.0918C124.315 46.9268 127.034 44.0962 128.951 41.6C130.912 39.0591 131.893 37.1199 131.893 35.7828C131.893 34.5346 131.403 33.6208 130.422 33.0413C129.486 32.4618 128.238 32.1719 126.677 32.1719C123.334 32.1719 119.612 33.1749 115.511 35.1809C111.41 37.1869 107.175 39.8614 102.806 43.2047C98.4826 46.5479 94.2923 50.2256 90.2358 54.2374C86.1794 58.2494 82.5241 62.2837 79.2699 66.3401C76.0158 70.3965 73.4305 74.1188 71.5136 77.5065Z" fill="#FF0077"/>
</g>
<defs>
<linearGradient id="paint0_linear_197_596" x1="83.5" y1="0" x2="83.5" y2="167" gradientUnits="userSpaceOnUse">
<stop stop-color="#FFD4E4"/>
<stop offset="1" stop-color="#FFD4E4"/>
</linearGradient>
<clipPath id="clip0_197_596">
<rect width="167" height="167" fill="white"/>
</clipPath>
</defs>
</svg>
