<svg width="60" height="60" viewBox="0 0 60 60" fill="none" xmlns="http://www.w3.org/2000/svg">
<g clip-path="url(#clip0_197_581)">
<path d="M60 0H0V60H60V0Z" fill="url(#paint0_linear_197_581)"/>
<path d="M17.8137 45.6721C16.2442 45.6721 14.8828 45.3358 13.7297 44.6631C12.5765 43.9744 12 43.1576 12 42.2127C12 41.476 12.2482 40.9555 12.7447 40.6512C13.2412 40.3469 13.7377 40.1947 14.2342 40.1947C14.5064 40.1947 14.7787 40.2828 15.051 40.459C15.3232 40.6192 15.4594 40.8994 15.4594 41.2998C15.4594 41.6041 15.3232 41.8763 15.051 42.1166C14.7787 42.3568 14.4584 42.4769 14.09 42.4769C13.8818 42.4769 13.6816 42.469 13.4894 42.4529C13.2973 42.4209 13.1211 42.3568 12.961 42.2608V42.4049C12.961 43.1576 13.4094 43.7902 14.3063 44.3027C15.2191 44.7992 16.4524 45.0475 18.0059 45.0475C19.3192 45.0475 20.6485 44.7191 21.9937 44.0625C23.339 43.4059 24.7965 42.3088 26.366 40.7713C27.9355 39.2338 29.7133 37.1437 31.6992 34.5012C32.3879 33.5883 33.2687 32.5072 34.3418 31.258C35.4308 29.9928 36.4158 28.8797 37.2967 27.9187C34.6861 29.7605 32.492 31.0498 30.7142 31.7865C28.9525 32.5232 27.431 32.8916 26.1498 32.8916C25.0768 32.8916 24.2199 32.7074 23.5793 32.339C22.9387 31.9547 22.6184 31.21 22.6184 30.1049C22.6184 29.7365 22.6584 29.3121 22.7385 28.8316C22.1459 28.8797 21.5533 28.9037 20.9608 28.9037C19.9357 28.9037 18.9908 28.7916 18.126 28.5674C17.2612 28.3432 16.5404 28.0709 15.9638 27.7506C15.5314 27.5264 15.3152 27.3582 15.3152 27.2461C15.3152 27.0859 15.4033 27.0059 15.5795 27.0059C15.6275 27.0059 15.7316 27.0539 15.8918 27.15C16.7086 27.5824 17.5094 27.9028 18.2941 28.111C19.0949 28.3192 20.1039 28.4233 21.3211 28.4233C21.8015 28.4233 22.3061 28.3992 22.8346 28.3512C23.2029 26.7977 23.9477 25.2121 25.0687 23.5945C26.2058 21.977 27.5832 20.4154 29.2008 18.91C30.8344 17.4045 32.5801 16.0592 34.4379 14.874C36.2957 13.6889 38.1455 12.752 39.9873 12.0633C41.8291 11.3586 43.5187 11.0063 45.0563 11.0063C46.0973 11.0063 46.842 11.1824 47.2904 11.5348C47.7389 11.8711 47.9631 12.3916 47.9631 13.0963C47.9631 14.3295 47.3305 15.6908 46.0652 17.1803C44.8 18.6697 43.0383 20.1832 40.7801 21.7207C38.5379 23.2582 35.9354 24.7156 32.9725 26.093C31.7553 26.6375 30.506 27.118 29.2248 27.5344C27.9436 27.9347 26.6543 28.2551 25.357 28.4953C24.8446 29.4883 24.5883 30.3211 24.5883 30.9937C24.5883 31.298 24.7244 31.5863 24.9967 31.8586C25.2689 32.1308 25.7734 32.267 26.5102 32.267C27.9515 32.267 29.7613 31.7065 31.9394 30.5854C34.1176 29.4643 37.0004 27.5183 40.5879 24.7477C41.4367 24.091 42.1975 23.5545 42.8701 23.1381C43.5588 22.7217 44.0233 22.5135 44.2635 22.5135C44.3916 22.5135 44.5197 22.5375 44.6479 22.5856C44.776 22.6336 44.84 22.6976 44.84 22.7777C44.84 22.9219 44.7039 23.058 44.4316 23.1862C43.8391 23.4584 43.1904 23.9389 42.4858 24.6275C41.7971 25.3002 40.9803 26.2691 40.0354 27.5344C39.1064 28.7836 37.9934 30.4172 36.6961 32.4352C31.0586 41.2598 24.7645 45.6721 17.8137 45.6721ZM25.6934 27.8467C26.8304 27.5744 28.0237 27.19 29.2729 26.6936C30.5221 26.1971 31.8514 25.5965 33.2608 24.8918C35.3107 23.8027 37.1926 22.6656 38.9063 21.4805C40.636 20.2793 42.1334 19.1182 43.3987 17.9971C44.6639 16.8599 45.6408 15.8429 46.3295 14.9461C47.0342 14.0332 47.3865 13.3365 47.3865 12.8561C47.3865 12.4076 47.2103 12.0793 46.858 11.8711C46.5217 11.6629 46.0732 11.5588 45.5127 11.5588C44.3115 11.5588 42.9742 11.9191 41.5008 12.6398C40.0273 13.3606 38.5058 14.3215 36.9363 15.5227C35.3828 16.7238 33.8773 18.0451 32.4199 19.4865C30.9625 20.9279 29.6492 22.3774 28.4801 23.8348C27.3109 25.2922 26.3821 26.6295 25.6934 27.8467Z" fill="#FF0077"/>
</g>
<defs>
<linearGradient id="paint0_linear_197_581" x1="30" y1="0" x2="30" y2="60" gradientUnits="userSpaceOnUse">
<stop stop-color="#FFD4E4"/>
<stop offset="1" stop-color="#FFD4E4"/>
</linearGradient>
<clipPath id="clip0_197_581">
<rect width="60" height="60" fill="white"/>
</clipPath>
</defs>
</svg>
