<svg width="32" height="32" viewBox="0 0 32 32" fill="none" xmlns="http://www.w3.org/2000/svg">
<g clip-path="url(#clip0_197_590)">
<path d="M32 0H0V32H32V0Z" fill="url(#paint0_linear_197_590)"/>
<path d="M9.50103 24.3584C8.66394 24.3584 7.93789 24.1791 7.32289 23.8203C6.70788 23.453 6.40039 23.0174 6.40039 22.5134C6.40039 22.1205 6.53277 21.8429 6.79757 21.6806C7.06237 21.5183 7.32717 21.4372 7.59194 21.4372C7.73716 21.4372 7.88237 21.4842 8.02759 21.5781C8.17277 21.6636 8.24538 21.813 8.24538 22.0266C8.24538 22.1889 8.17277 22.334 8.02759 22.4622C7.88237 22.5903 7.71153 22.6544 7.51508 22.6544C7.40404 22.6544 7.29725 22.6501 7.19476 22.6416C7.09226 22.6245 6.99831 22.5903 6.9129 22.5391V22.6159C6.9129 23.0174 7.15207 23.3548 7.63041 23.6281C8.11725 23.8929 8.77498 24.0253 9.60353 24.0253C10.3039 24.0253 11.0129 23.8502 11.7304 23.5C12.4479 23.1498 13.2252 22.5647 14.0623 21.7447C14.8993 20.9247 15.8475 19.81 16.9066 18.4006C17.2739 17.9138 17.7437 17.3372 18.316 16.6709C18.8968 15.9962 19.4222 15.4025 19.8919 14.89C18.4997 15.8723 17.3294 16.5599 16.3813 16.9528C15.4417 17.3457 14.6303 17.5422 13.947 17.5422C13.3747 17.5422 12.9177 17.444 12.576 17.2475C12.2343 17.0425 12.0635 16.6453 12.0635 16.0559C12.0635 15.8595 12.0849 15.6331 12.1276 15.3769C11.8115 15.4025 11.4955 15.4153 11.1795 15.4153C10.6328 15.4153 10.1288 15.3555 9.66759 15.2359C9.20634 15.1164 8.82196 14.9711 8.51444 14.8003C8.28381 14.6807 8.16852 14.591 8.16852 14.5313C8.16852 14.4458 8.21549 14.4031 8.30945 14.4031C8.33508 14.4031 8.3906 14.4287 8.47601 14.48C8.91165 14.7106 9.33873 14.8815 9.75725 14.9925C10.1844 15.1036 10.7225 15.1591 11.3717 15.1591C11.6279 15.1591 11.897 15.1462 12.1788 15.1206C12.3753 14.2921 12.7725 13.4465 13.3704 12.5837C13.9768 11.7211 14.7114 10.8882 15.5742 10.0853C16.4454 9.2824 17.3764 8.5649 18.3673 7.9328C19.3581 7.30073 20.3446 6.80105 21.327 6.43376C22.3093 6.05792 23.2104 5.87001 24.0304 5.87001C24.5856 5.87001 24.9828 5.96397 25.222 6.15187C25.4611 6.33126 25.5807 6.60886 25.5807 6.98467C25.5807 7.6424 25.2433 8.36845 24.5685 9.16282C23.8937 9.95718 22.9542 10.7644 21.7498 11.5844C20.5539 12.4044 19.1659 13.1817 17.5857 13.9163C16.9366 14.2067 16.2703 14.4629 15.587 14.685C14.9036 14.8985 14.216 15.0694 13.5241 15.1975C13.2508 15.7271 13.1142 16.1713 13.1142 16.53C13.1142 16.6923 13.1868 16.846 13.3319 16.9913C13.4772 17.1364 13.7462 17.2091 14.1391 17.2091C14.9079 17.2091 15.8731 16.9101 17.0348 16.3122C18.1964 15.7143 19.7339 14.6764 21.6473 13.1988C22.1 12.8485 22.5057 12.5624 22.8645 12.3403C23.2318 12.1182 23.4795 12.0072 23.6076 12.0072C23.6759 12.0072 23.7442 12.02 23.8126 12.0456C23.8809 12.0713 23.9151 12.1054 23.9151 12.1481C23.9151 12.225 23.8425 12.2976 23.6973 12.366C23.3812 12.5111 23.0353 12.7674 22.6595 13.1347C22.2922 13.4934 21.8566 14.0102 21.3526 14.685C20.8572 15.3513 20.2635 16.2225 19.5717 17.2988C16.565 22.0052 13.2081 24.3584 9.50103 24.3584ZM13.7035 14.8516C14.31 14.7064 14.9463 14.5013 15.6126 14.2366C16.2788 13.9718 16.9878 13.6515 17.7395 13.2756C18.8328 12.6948 19.8364 12.0883 20.7504 11.4563C21.6729 10.8156 22.4715 10.1964 23.1463 9.59843C23.8211 8.99197 24.3422 8.44957 24.7094 7.97126C25.0853 7.48438 25.2732 7.1128 25.2732 6.85657C25.2732 6.61741 25.1792 6.4423 24.9913 6.33126C24.8119 6.22022 24.5728 6.16467 24.2738 6.16467C23.6332 6.16467 22.92 6.35686 22.1342 6.74125C21.3483 7.12563 20.5368 7.63811 19.6998 8.27875C18.8712 8.91936 18.0683 9.62406 17.291 10.3928C16.5137 11.1616 15.8133 11.9346 15.1898 12.7119C14.5662 13.4892 14.0708 14.2024 13.7035 14.8516Z" fill="#FF0077"/>
</g>
<defs>
<linearGradient id="paint0_linear_197_590" x1="16" y1="0" x2="16" y2="32" gradientUnits="userSpaceOnUse">
<stop stop-color="#FFD4E4"/>
<stop offset="1" stop-color="#FFD4E4"/>
</linearGradient>
<clipPath id="clip0_197_590">
<rect width="32" height="32" fill="white"/>
</clipPath>
</defs>
</svg>
