<svg width="192" height="192" viewBox="0 0 192 192" fill="none" xmlns="http://www.w3.org/2000/svg">
<g clip-path="url(#clip0_197_578)">
<path d="M192 0H0V192H192V0Z" fill="url(#paint0_linear_197_578)"/>
<path d="M57.0042 146.151C51.9817 146.151 47.6254 145.074 43.9354 142.922C40.2453 140.718 38.4004 138.104 38.4004 135.081C38.4004 132.723 39.1947 131.057 40.7835 130.084C42.3723 129.11 43.9611 128.623 45.5497 128.623C46.421 128.623 47.2923 128.905 48.1636 129.469C49.0347 129.981 49.4703 130.878 49.4703 132.159C49.4703 133.133 49.0347 134.004 48.1636 134.773C47.2923 135.542 46.2672 135.926 45.0885 135.926C44.4223 135.926 43.7816 135.901 43.1666 135.849C42.5516 135.747 41.9879 135.542 41.4755 135.234V135.696C41.4755 138.104 42.9105 140.129 45.7805 141.769C48.7016 143.358 52.6479 144.152 57.6192 144.152C61.8217 144.152 66.0755 143.101 70.3803 141C74.6853 138.899 79.3492 135.388 84.3717 130.468C89.3941 125.548 95.0828 118.86 101.438 110.404C103.642 107.483 106.46 104.023 109.894 100.026C113.379 95.977 116.531 92.415 119.35 89.3399C110.996 95.2337 103.975 99.3594 98.286 101.717C92.6485 104.074 87.7797 105.253 83.6798 105.253C80.246 105.253 77.5041 104.664 75.4541 103.485C73.4041 102.255 72.3792 99.8719 72.3792 96.3356C72.3792 95.1569 72.5073 93.7987 72.7636 92.2612C70.8672 92.415 68.971 92.492 67.0748 92.492C63.7947 92.492 60.7711 92.1331 58.0036 91.4156C55.2361 90.6981 52.9298 89.8268 51.0847 88.8019C49.7009 88.0844 49.0092 87.5462 49.0092 87.1876C49.0092 86.6749 49.291 86.4188 49.8547 86.4188C50.0085 86.4188 50.3416 86.5724 50.8541 86.88C53.468 88.2638 56.0304 89.2888 58.5416 89.9551C61.1042 90.6213 64.3329 90.9544 68.228 90.9544C69.7653 90.9544 71.3798 90.8774 73.071 90.7238C74.2497 85.7526 76.633 80.6788 80.2203 75.5025C83.8591 70.3263 88.2666 65.3293 93.443 60.5119C98.6703 55.6944 104.257 51.3894 110.202 47.5968C116.147 43.8044 122.066 40.8063 127.96 38.6026C133.854 36.3475 139.26 35.2201 144.181 35.2201C147.512 35.2201 149.895 35.7838 151.33 36.9112C152.765 37.9876 153.482 39.6532 153.482 41.908C153.482 45.8544 151.458 50.2107 147.409 54.9769C143.36 59.7431 137.723 64.5863 130.497 69.5063C123.322 74.4263 114.994 79.09 105.512 83.4975C101.617 85.2399 97.6197 86.7775 93.5198 88.11C89.4198 89.3912 85.2941 90.4163 81.1429 91.185C79.503 94.3624 78.683 97.0276 78.683 99.1799C78.683 100.154 79.1186 101.076 79.9897 101.948C80.861 102.819 82.4753 103.254 84.8329 103.254C89.4453 103.254 95.2366 101.461 102.207 97.8732C109.177 94.2856 118.402 88.0587 129.882 79.1925C132.598 77.0913 135.032 75.3744 137.185 74.0419C139.389 72.7094 140.875 72.0432 141.644 72.0432C142.054 72.0432 142.463 72.12 142.874 72.2738C143.283 72.4276 143.489 72.6324 143.489 72.8888C143.489 73.35 143.053 73.7856 142.182 74.1957C140.285 75.0668 138.21 76.6044 135.955 78.8081C133.751 80.9606 131.137 84.0613 128.114 88.11C125.141 92.1076 121.579 97.335 117.428 103.793C99.3878 132.031 79.2467 146.151 57.0042 146.151ZM82.2192 89.1093C85.8578 88.2382 89.6761 87.0081 93.6736 85.4195C97.671 83.8307 101.925 81.9087 106.435 79.6537C112.995 76.1687 119.017 72.5299 124.501 68.7375C130.035 64.8937 134.827 61.1781 138.876 57.5906C142.925 53.9518 146.051 50.6974 148.255 47.8276C150.51 44.9063 151.637 42.6768 151.637 41.1395C151.637 39.7044 151.073 38.6538 149.946 37.9876C148.87 37.3213 147.435 36.988 145.641 36.988C141.797 36.988 137.518 38.1412 132.803 40.4475C128.088 42.7538 123.219 45.8287 118.197 49.6725C113.225 53.5162 108.408 57.7444 103.744 62.3568C99.0805 66.9694 94.878 71.6076 91.1367 76.2712C87.3953 80.9349 84.423 85.2144 82.2192 89.1093Z" fill="#FF0077"/>
</g>
<defs>
<linearGradient id="paint0_linear_197_578" x1="96" y1="0" x2="96" y2="192" gradientUnits="userSpaceOnUse">
<stop stop-color="#FFD4E4"/>
<stop offset="1" stop-color="#FFD4E4"/>
</linearGradient>
<clipPath id="clip0_197_578">
<rect width="192" height="192" fill="white"/>
</clipPath>
</defs>
</svg>
