<svg width="48" height="48" viewBox="0 0 48 48" fill="none" xmlns="http://www.w3.org/2000/svg">
<g clip-path="url(#clip0_197_575)">
<path d="M48 0H0V48H48V0Z" fill="url(#paint0_linear_197_575)"/>
<path d="M14.2506 36.5376C12.9949 36.5376 11.9059 36.2686 10.9834 35.7305C10.0608 35.1795 9.59961 34.5261 9.59961 33.7702C9.59961 33.1808 9.79819 32.7644 10.1954 32.521C10.5926 32.2775 10.9898 32.1558 11.3869 32.1558C11.6048 32.1558 11.8226 32.2262 12.0404 32.3672C12.2582 32.4953 12.3671 32.7195 12.3671 33.0398C12.3671 33.2833 12.2582 33.5011 12.0404 33.6933C11.8226 33.8855 11.5663 33.9816 11.2716 33.9816C11.1051 33.9816 10.9449 33.9752 10.7912 33.9623C10.6374 33.9367 10.4965 33.8855 10.3684 33.8086V33.9239C10.3684 34.5261 10.7271 35.0322 11.4446 35.4422C12.1749 35.8394 13.1615 36.038 14.4043 36.038C15.4549 36.038 16.5184 35.7753 17.5946 35.25C18.6708 34.7247 19.8368 33.847 21.0924 32.617C22.348 31.387 23.7702 29.715 25.359 27.601C25.9099 26.8706 26.6146 26.0058 27.473 25.0064C28.3443 23.9942 29.1322 23.1037 29.8369 22.335C27.7485 23.8084 25.9932 24.8399 24.571 25.4292C23.1616 26.0186 21.9444 26.3133 20.9194 26.3133C20.061 26.3133 19.3755 26.166 18.863 25.8712C18.3505 25.5637 18.0943 24.968 18.0943 24.0839C18.0943 23.7892 18.1263 23.4497 18.1904 23.0653C17.7163 23.1037 17.2423 23.123 16.7682 23.123C15.9482 23.123 15.1923 23.0333 14.5004 22.8539C13.8085 22.6745 13.232 22.4567 12.7707 22.2005C12.4247 22.0211 12.2518 21.8866 12.2518 21.7969C12.2518 21.6687 12.3223 21.6047 12.4632 21.6047C12.5016 21.6047 12.5849 21.6431 12.713 21.72C13.3665 22.0659 14.0071 22.3222 14.6349 22.4888C15.2756 22.6553 16.0827 22.7386 17.0565 22.7386C17.4408 22.7386 17.8445 22.7194 18.2673 22.681C18.5619 21.4381 19.1578 20.1697 20.0546 18.8756C20.9643 17.5816 22.0662 16.3323 23.3602 15.128C24.6671 13.9236 26.0637 12.8473 27.5499 11.8992C29.0361 10.9511 30.516 10.2016 31.9894 9.65064C33.4629 9.08688 34.8146 8.80502 36.0446 8.80502C36.8774 8.80502 37.4732 8.94595 37.832 9.22781C38.1907 9.4969 38.3701 9.9133 38.3701 10.477C38.3701 11.4636 37.864 12.5527 36.8518 13.7442C35.8396 14.9358 34.4302 16.1466 32.6237 17.3766C30.8299 18.6066 28.7479 19.7725 26.3776 20.8744C25.4038 21.31 24.4044 21.6944 23.3794 22.0275C22.3545 22.3478 21.323 22.6041 20.2852 22.7963C19.8753 23.5906 19.6702 24.2569 19.6702 24.795C19.6702 25.0384 19.7792 25.2691 19.9969 25.4869C20.2148 25.7047 20.6183 25.8136 21.2077 25.8136C22.3608 25.8136 23.8087 25.3652 25.5512 24.4683C27.2937 23.5714 29.5999 22.0147 32.4699 19.7981C33.149 19.2728 33.7576 18.8436 34.2957 18.5105C34.8466 18.1774 35.2182 18.0108 35.4104 18.0108C35.5129 18.0108 35.6154 18.03 35.7179 18.0684C35.8204 18.1069 35.8716 18.1581 35.8716 18.2222C35.8716 18.3375 35.7627 18.4464 35.5449 18.5489C35.0709 18.7667 34.5519 19.1511 33.9882 19.702C33.4373 20.2402 32.7838 21.0153 32.0279 22.0275C31.2848 23.0269 30.3943 24.3337 29.3565 25.9481C24.8465 33.0078 19.8112 36.5376 14.2506 36.5376ZM20.5543 22.2773C21.464 22.0596 22.4185 21.752 23.4179 21.3549C24.4173 20.9577 25.4807 20.4772 26.6082 19.9134C28.2482 19.0422 29.7537 18.1325 31.1246 17.1844C32.5084 16.2234 33.7063 15.2945 34.7185 14.3976C35.7307 13.488 36.5122 12.6744 37.0632 11.9569C37.6269 11.2266 37.9088 10.6692 37.9088 10.2849C37.9088 9.92611 37.7679 9.66346 37.486 9.4969C37.2169 9.33034 36.8582 9.24701 36.4098 9.24701C35.4488 9.24701 34.379 9.5353 33.2002 10.1119C32.0215 10.6884 30.8043 11.4572 29.5486 12.4181C28.3059 13.379 27.1015 14.4361 25.9355 15.5892C24.7696 16.7424 23.719 17.9019 22.7837 19.0678C21.8483 20.2337 21.1053 21.3036 20.5543 22.2773Z" fill="#FF0077"/>
</g>
<defs>
<linearGradient id="paint0_linear_197_575" x1="24" y1="0" x2="24" y2="48" gradientUnits="userSpaceOnUse">
<stop stop-color="#FFD4E4"/>
<stop offset="1" stop-color="#FFD4E4"/>
</linearGradient>
<clipPath id="clip0_197_575">
<rect width="48" height="48" fill="white"/>
</clipPath>
</defs>
</svg>
