<svg width="84" height="84" viewBox="0 0 84 84" fill="none" xmlns="http://www.w3.org/2000/svg">
<g clip-path="url(#clip0_197_593)">
<path d="M83.5 0H0V83.5H83.5V0Z" fill="url(#paint0_linear_197_593)"/>
<path d="M24.7909 63.5603C22.6067 63.5603 20.7121 63.0923 19.1073 62.1562C17.5025 61.1977 16.7002 60.0611 16.7002 58.746C16.7002 57.7207 17.0456 56.9964 17.7366 56.5729C18.4276 56.1494 19.1185 55.9377 19.8094 55.9377C20.1883 55.9377 20.5672 56.0602 20.9462 56.3054C21.325 56.5283 21.5145 56.9184 21.5145 57.4756C21.5145 57.8991 21.325 58.2779 20.9462 58.6122C20.5672 58.9466 20.1214 59.1137 19.6088 59.1137C19.3191 59.1137 19.0405 59.1026 18.773 59.0803C18.5055 59.0358 18.2604 58.9466 18.0375 58.8129V59.0135C18.0375 60.0611 18.6616 60.9414 19.9098 61.6547C21.1801 62.3456 22.8964 62.6911 25.0584 62.6911C26.886 62.6911 28.736 62.2341 30.6081 61.3203C32.4804 60.4065 34.5087 58.8797 36.6929 56.74C38.8771 54.6003 41.3512 51.6917 44.1149 48.0142C45.0733 46.7437 46.2992 45.2392 47.7925 43.5007C49.3081 41.74 50.6789 40.1909 51.9047 38.8536C48.2717 41.4168 45.2182 43.211 42.7442 44.2362C40.2925 45.2615 38.1751 45.7741 36.392 45.7741C34.8987 45.7741 33.7062 45.5179 32.8147 45.0052C31.9232 44.4703 31.4774 43.4339 31.4774 41.896C31.4774 41.3834 31.5331 40.7927 31.6446 40.124C30.8199 40.1909 29.9952 40.2244 29.1706 40.2244C27.7441 40.2244 26.4291 40.0683 25.2255 39.7563C24.022 39.4442 23.019 39.0653 22.2165 38.6196C21.6148 38.3075 21.3139 38.0735 21.3139 37.9175C21.3139 37.6946 21.4365 37.5832 21.6816 37.5832C21.7485 37.5832 21.8934 37.65 22.1163 37.7838C23.253 38.3855 24.3674 38.8313 25.4595 39.1211C26.574 39.4108 27.9781 39.5557 29.6721 39.5557C30.3407 39.5557 31.0428 39.5222 31.7783 39.4554C32.2909 37.2934 33.3274 35.0869 34.8875 32.8357C36.47 30.5846 38.3868 28.4115 40.638 26.3164C42.9113 24.2213 45.3408 22.349 47.9263 20.6996C50.5117 19.0504 53.086 17.7465 55.6492 16.7881C58.2124 15.8074 60.5638 15.3171 62.7035 15.3171C64.1522 15.3171 65.1886 15.5622 65.8127 16.0525C66.4368 16.5206 66.7488 17.245 66.7488 18.2256C66.7488 19.9419 65.8684 21.8364 64.1077 23.9092C62.3469 25.982 59.8952 28.0883 56.7525 30.228C53.6321 32.3677 50.0103 34.3959 45.8869 36.3127C44.193 37.0705 42.4544 37.7392 40.6714 38.3187C38.8883 38.8758 37.0941 39.3217 35.2887 39.656C34.5755 41.0378 34.2189 42.1969 34.2189 43.1329C34.2189 43.5564 34.4084 43.9577 34.7872 44.3366C35.1661 44.7154 35.8682 44.9049 36.8935 44.9049C38.8994 44.9049 41.418 44.1248 44.4492 42.5646C47.4805 41.0044 51.4924 38.2964 56.485 34.4405C57.6663 33.5267 58.725 32.78 59.6611 32.2005C60.6195 31.621 61.2659 31.3313 61.6002 31.3313C61.7785 31.3313 61.9568 31.3647 62.1351 31.4316C62.3134 31.4985 62.4026 31.5875 62.4026 31.699C62.4026 31.8996 62.2131 32.0891 61.8342 32.2674C61.0096 32.6462 60.1068 33.3149 59.1262 34.2733C58.1678 35.2094 57.0311 36.5579 55.7161 38.3187C54.4233 40.0572 52.8743 42.3306 51.069 45.1389C43.2234 57.4199 34.4641 63.5603 24.7909 63.5603ZM35.7568 38.7533C37.3392 38.3744 38.9998 37.8394 40.7383 37.1486C42.4767 36.4576 44.3267 35.6218 46.2881 34.6411C49.1409 33.1255 51.7598 31.543 54.1448 29.8937C56.5519 28.222 58.6358 26.6061 60.3967 25.0459C62.1574 23.4634 63.517 22.0481 64.4754 20.8C65.4561 19.5296 65.9464 18.56 65.9464 17.8914C65.9464 17.2673 65.7013 16.8104 65.2109 16.5206C64.7428 16.2309 64.1188 16.0859 63.3387 16.0859C61.667 16.0859 59.806 16.5874 57.7555 17.5904C55.7049 18.5934 53.5875 19.9307 51.4032 21.6024C49.2413 23.274 47.1461 25.1128 45.1179 27.1187C43.0897 29.1247 41.2621 31.1418 39.635 33.17C38.0079 35.1983 36.7152 37.0594 35.7568 38.7533Z" fill="#FF0077"/>
</g>
<defs>
<linearGradient id="paint0_linear_197_593" x1="41.75" y1="0" x2="41.75" y2="83.5" gradientUnits="userSpaceOnUse">
<stop stop-color="#FFD4E4"/>
<stop offset="1" stop-color="#FFD4E4"/>
</linearGradient>
<clipPath id="clip0_197_593">
<rect width="83.5" height="83.5" fill="white"/>
</clipPath>
</defs>
</svg>
