<svg width="16" height="16" viewBox="0 0 16 16" fill="none" xmlns="http://www.w3.org/2000/svg">
<g clip-path="url(#clip0_197_587)">
<path d="M16 0H0V16H16V0Z" fill="url(#paint0_linear_197_587)"/>
<path d="M4.75052 12.1792C4.33197 12.1792 3.96895 12.0895 3.66144 11.9102C3.35394 11.7265 3.2002 11.5087 3.2002 11.2567C3.2002 11.0603 3.26639 10.9215 3.39879 10.8403C3.53119 10.7592 3.66359 10.7186 3.79597 10.7186C3.86858 10.7186 3.94119 10.7421 4.0138 10.7891C4.08639 10.8318 4.12269 10.9065 4.12269 11.0133C4.12269 11.0944 4.08639 11.167 4.0138 11.2311C3.94119 11.2952 3.85576 11.3272 3.75754 11.3272C3.70202 11.3272 3.64863 11.3251 3.59738 11.3208C3.54613 11.3122 3.49916 11.2952 3.45645 11.2695V11.308C3.45645 11.5087 3.57604 11.6774 3.8152 11.8141C4.05863 11.9465 4.38749 12.0127 4.80176 12.0127C5.15197 12.0127 5.50645 11.9251 5.86519 11.75C6.22394 11.5749 6.6126 11.2823 7.03114 10.8723C7.44967 10.4623 7.92373 9.90499 8.45332 9.20032C8.63696 8.95688 8.87186 8.66859 9.158 8.33547C9.44842 7.99808 9.71108 7.70125 9.94597 7.44499C9.24983 7.93614 8.66472 8.27995 8.19066 8.4764C7.72087 8.67286 7.31514 8.77109 6.97348 8.77109C6.68733 8.77109 6.45884 8.72198 6.288 8.62374C6.11717 8.52125 6.03176 8.32266 6.03176 8.02797C6.03176 7.92974 6.04244 7.81656 6.0638 7.68843C5.90576 7.70125 5.74775 7.70766 5.58973 7.70766C5.31639 7.70766 5.06442 7.67776 4.8338 7.61797C4.60317 7.55818 4.41098 7.48557 4.25722 7.40016C4.14191 7.34037 4.08426 7.29552 4.08426 7.26563C4.08426 7.22291 4.10775 7.20157 4.15472 7.20157C4.16754 7.20157 4.1953 7.21437 4.238 7.24C4.45583 7.35531 4.66936 7.44074 4.87863 7.49626C5.09218 7.55178 5.36124 7.57954 5.68583 7.57954C5.81394 7.57954 5.94848 7.57312 6.08941 7.56032C6.18764 7.14605 6.38624 6.72323 6.68519 6.29187C6.98842 5.86053 7.35572 5.44411 7.78708 5.04266C8.22269 4.6412 8.68821 4.28245 9.18364 3.9664C9.67904 3.65037 10.1723 3.40053 10.6635 3.21688C11.1546 3.02896 11.6052 2.93501 12.0152 2.93501C12.2928 2.93501 12.4914 2.98198 12.611 3.07594C12.7306 3.16563 12.7904 3.30443 12.7904 3.49234C12.7904 3.8212 12.6217 4.18422 12.2843 4.58141C11.9469 4.97859 11.4771 5.38219 10.8749 5.79219C10.277 6.20219 9.58296 6.59083 8.79285 6.95813C8.46828 7.10333 8.13514 7.23146 7.79348 7.3425C7.45181 7.44926 7.108 7.53469 6.76207 7.59875C6.62541 7.86354 6.55708 8.08563 6.55708 8.26499C6.55708 8.34614 6.59338 8.42302 6.66597 8.49563C6.73858 8.56822 6.87311 8.60453 7.06957 8.60453C7.45394 8.60453 7.93655 8.45506 8.51738 8.1561C9.09821 7.85714 9.86696 7.33822 10.8236 6.59938C11.05 6.42427 11.2529 6.2812 11.4322 6.17016C11.6159 6.05912 11.7397 6.0036 11.8038 6.0036C11.838 6.0036 11.8721 6.01 11.9063 6.02282C11.9405 6.03563 11.9575 6.0527 11.9575 6.07406C11.9575 6.1125 11.9212 6.1488 11.8486 6.18298C11.6906 6.25557 11.5176 6.3837 11.3297 6.56734C11.1461 6.74672 10.9283 7.0051 10.6763 7.3425C10.4286 7.67563 10.1318 8.11125 9.78583 8.64938C8.28248 11.0026 6.60405 12.1792 4.75052 12.1792ZM6.85176 7.42578C7.15498 7.35318 7.47317 7.25067 7.80629 7.11829C8.13941 6.98589 8.49389 6.82573 8.86973 6.63781C9.41639 6.34739 9.91821 6.04416 10.3752 5.72813C10.8365 5.40781 11.2358 5.09818 11.5732 4.79922C11.9106 4.49598 12.1711 4.22478 12.3547 3.98563C12.5426 3.74219 12.6366 3.5564 12.6366 3.42829C12.6366 3.3087 12.5896 3.22115 12.4957 3.16563C12.406 3.11011 12.2864 3.08234 12.1369 3.08234C11.8166 3.08234 11.46 3.17843 11.0671 3.37062C10.6741 3.56282 10.2684 3.81906 9.84988 4.13938C9.43562 4.45968 9.03415 4.81203 8.64551 5.1964C8.25687 5.58078 7.90666 5.9673 7.59488 6.35594C7.28311 6.74458 7.03541 7.1012 6.85176 7.42578Z" fill="#FF0077"/>
</g>
<defs>
<linearGradient id="paint0_linear_197_587" x1="8" y1="0" x2="8" y2="16" gradientUnits="userSpaceOnUse">
<stop stop-color="#FFD4E4"/>
<stop offset="1" stop-color="#FFD4E4"/>
</linearGradient>
<clipPath id="clip0_197_587">
<rect width="16" height="16" fill="white"/>
</clipPath>
</defs>
</svg>
