<svg width="180" height="180" viewBox="0 0 180 180" fill="none" xmlns="http://www.w3.org/2000/svg">
<g clip-path="url(#clip0_197_584)">
<path d="M180 0H0V180H180V0Z" fill="url(#paint0_linear_197_584)"/>
<path d="M53.4411 137.016C48.7325 137.016 44.6485 136.007 41.189 133.989C37.7296 131.923 36 129.473 36 126.638C36 124.428 36.7447 122.866 38.2342 121.954C39.7237 121.041 41.2132 120.584 42.7025 120.584C43.5193 120.584 44.3362 120.848 45.153 121.377C45.9697 121.857 46.3781 122.698 46.3781 123.899C46.3781 124.812 45.9697 125.629 45.153 126.35C44.3362 127.07 43.3751 127.431 42.2701 127.431C41.6455 127.431 41.0449 127.407 40.4683 127.359C39.8918 127.263 39.3633 127.07 38.8829 126.782V127.215C38.8829 129.473 40.2282 131.371 42.9188 132.908C45.6574 134.398 49.3571 135.142 54.0176 135.142C57.9575 135.142 61.9454 134.157 65.9812 132.188C70.0171 130.218 74.3895 126.926 79.0981 122.314C83.8066 117.701 89.1398 111.431 95.0976 103.504C97.1636 100.765 99.8062 97.5217 103.025 93.7741C106.293 89.9784 109.247 86.639 111.89 83.7562C104.058 89.2816 97.4759 93.1495 92.1427 95.3595C86.8576 97.5697 82.2931 98.6748 78.4494 98.6748C75.2303 98.6748 72.6597 98.1223 70.7378 97.0171C68.816 95.864 67.8551 93.6299 67.8551 90.3146C67.8551 89.2096 67.9752 87.9363 68.2155 86.4949C66.4376 86.639 64.66 86.7112 62.8823 86.7112C59.8072 86.7112 56.9725 86.3748 54.378 85.7021C51.7835 85.0295 49.6213 84.2126 47.8915 83.2518C46.5943 82.5791 45.9457 82.0746 45.9457 81.7384C45.9457 81.2578 46.21 81.0176 46.7384 81.0176C46.8826 81.0176 47.1949 81.1616 47.6753 81.45C50.1259 82.7473 52.5281 83.7083 54.8824 84.3329C57.2848 84.9575 60.3117 85.2698 63.9634 85.2698C65.4046 85.2698 66.9182 85.1976 68.5037 85.0536C69.6087 80.393 71.843 75.6364 75.2062 70.7836C78.6175 65.9309 82.7496 61.2463 87.6024 56.7299C92.5031 52.2135 97.7402 48.1775 103.314 44.622C108.887 41.0666 114.436 38.2559 119.962 36.1899C125.487 34.0758 130.556 33.0188 135.169 33.0188C138.292 33.0188 140.526 33.5473 141.871 34.6043C143.217 35.6134 143.889 37.1749 143.889 39.2888C143.889 42.9885 141.991 47.0725 138.196 51.5408C134.4 56.0092 129.115 60.5497 122.34 65.1622C115.614 69.7747 107.806 74.1469 98.9174 78.2789C95.2659 79.9124 91.5181 81.3539 87.6744 82.6031C83.8307 83.8042 79.9628 84.7652 76.0711 85.486C74.5337 88.4648 73.7649 90.9634 73.7649 92.9812C73.7649 93.8941 74.1733 94.759 74.99 95.5759C75.8068 96.3925 77.3203 96.801 79.5305 96.801C83.8546 96.801 89.284 95.1194 95.8183 91.7561C102.353 88.3928 111.001 82.555 121.764 74.243C124.31 72.2731 126.592 70.6635 128.61 69.4143C130.676 68.1651 132.07 67.5405 132.791 67.5405C133.175 67.5405 133.559 67.6125 133.944 67.7567C134.328 67.9009 134.52 68.0929 134.52 68.3332C134.52 68.7656 134.112 69.174 133.295 69.5585C131.517 70.3751 129.571 71.8166 127.457 73.8826C125.391 75.9006 122.941 78.8074 120.106 82.6031C117.319 86.3509 113.98 91.2516 110.088 97.3055C93.1757 123.779 74.2934 137.016 53.4411 137.016ZM77.0801 83.54C80.4913 82.7233 84.071 81.5701 87.8186 80.0807C91.5662 78.5912 95.5541 76.7894 99.7823 74.6753C105.932 71.4082 111.578 67.9968 116.719 64.4414C121.908 60.8378 126.4 57.3545 130.196 53.9912C133.992 50.5798 136.922 47.5288 138.988 44.8384C141.103 42.0997 142.16 40.0095 142.16 38.5682C142.16 37.2229 141.631 36.238 140.574 35.6134C139.565 34.9888 138.22 34.6763 136.538 34.6763C132.935 34.6763 128.923 35.7574 124.502 37.9195C120.082 40.0817 115.518 42.9644 110.809 46.568C106.149 50.1714 101.632 54.1354 97.2598 58.4595C92.8876 62.7838 88.9477 67.1321 85.4402 71.5043C81.9328 75.8765 79.1462 79.8885 77.0801 83.54Z" fill="#FF0077"/>
</g>
<defs>
<linearGradient id="paint0_linear_197_584" x1="90" y1="0" x2="90" y2="180" gradientUnits="userSpaceOnUse">
<stop stop-color="#FFD4E4"/>
<stop offset="1" stop-color="#FFD4E4"/>
</linearGradient>
<clipPath id="clip0_197_584">
<rect width="180" height="180" fill="white"/>
</clipPath>
</defs>
</svg>
